<?xml version="1.0" encoding="iso-8859-1"?>
<!-- Generator: Adobe Illustrator 18.0.0, SVG Export Plug-In . SVG Version: 6.00 Build 0)  -->
<!DOCTYPE svg PUBLIC "-//W3C//DTD SVG 1.1//EN" "http://www.w3.org/Graphics/SVG/1.1/DTD/svg11.dtd">
<svg version="1.1" id="Capa_1" xmlns="http://www.w3.org/2000/svg" xmlns:xlink="http://www.w3.org/1999/xlink" x="0px" y="0px"
	 viewBox="0 0 299 299" style="enable-background:new 0 0 299 299;" xml:space="preserve">
<g>
	<path d="M284.804,65.994h-86.539V45.791c0-12.84-10.445-23.285-23.285-23.285h-50.959c-12.84,0-23.285,10.445-23.285,23.285v20.203
		H14.196C6.355,65.994,0,72.349,0,80.19v182.108c0,7.84,6.355,14.196,14.196,14.196h270.607c7.841,0,14.196-6.357,14.196-14.196
		V80.19C299,72.349,292.645,65.994,284.804,65.994z M124.735,46.505h49.529v19.488h-49.529V46.505z M149.5,257.244
		c-47.496,0-86-38.503-86-86s38.504-86,86-86s86,38.503,86,86S196.996,257.244,149.5,257.244z"/>
	<path d="M192.9,150.94h-23.097v-23.098c0-6.243-5.061-11.304-11.304-11.304h-18c-6.243,0-11.304,5.061-11.304,11.304v23.098
		h-23.098c-6.243,0-11.304,5.06-11.304,11.304v18c0,6.243,5.061,11.304,11.304,11.304h23.098v23.098
		c0,6.243,5.061,11.304,11.304,11.304h18c6.243,0,11.304-5.061,11.304-11.304v-23.098H192.9c6.243,0,11.304-5.061,11.304-11.304v-18
		C204.204,156,199.143,150.94,192.9,150.94z"/>
</g>
<g>
</g>
<g>
</g>
<g>
</g>
<g>
</g>
<g>
</g>
<g>
</g>
<g>
</g>
<g>
</g>
<g>
</g>
<g>
</g>
<g>
</g>
<g>
</g>
<g>
</g>
<g>
</g>
<g>
</g>
</svg>
