<?xml version="1.0" encoding="iso-8859-1"?>
<!-- Generator: Adobe Illustrator 16.0.0, SVG Export Plug-In . SVG Version: 6.00 Build 0)  -->
<!DOCTYPE svg PUBLIC "-//W3C//DTD SVG 1.1//EN" "http://www.w3.org/Graphics/SVG/1.1/DTD/svg11.dtd">
<svg version="1.1" id="Capa_1" xmlns="http://www.w3.org/2000/svg" xmlns:xlink="http://www.w3.org/1999/xlink" x="0px" y="0px"
	 width="29.037px" height="29.037px" viewBox="0 0 29.037 29.037" style="enable-background:new 0 0 29.037 29.037;"
	 xml:space="preserve">
<g>
	<g>
		<path d="M28.675,13.298c-0.672-7.499-9.896-5.292-11.375-1.025c-0.72-2.071-3.263-3.645-5.766-3.871l-0.112,0.9
			c0.166,0.238,0.256,0.519,0.256,0.811c0,2.654-1.938,4.903-4.508,5.36c-0.146,0.791-0.427,1.445-0.768,2.017
			c1.273,4.101,4.713,7.179,7.405,9.041c1.292-1.038,1.902-2.785,2.178-4.646c-1.368-0.529-2.342-1.849-2.342-3.402
			c0-2.02,1.637-3.656,3.656-3.656c2.019,0,3.655,1.637,3.655,3.656c0,1.726-1.201,3.164-2.812,3.548
			c-0.409,2.735-1.303,4.548-2.432,5.716c0.951,0.553,1.587,0.854,1.587,0.854S29.539,22.945,28.675,13.298z"/>
		<path d="M19.493,18.48c0-1.211-0.982-2.194-2.192-2.194c-1.212,0-2.194,0.981-2.194,2.194c0,1.062,0.757,1.949,1.763,2.149
			c-0.227,3.111-1.269,7.603-6.072,7.603c-0.525,0-1.068,0.018-1.615,0.035c-3.938,0.135-7.661,0.254-8.125-5.582
			c-0.122-1.523,0.884-2.219,2.155-3.099c1.381-0.954,3.053-2.144,3.314-4.771c2.461-0.164,4.42-2.199,4.42-4.702
			c0-0.235-0.118-0.435-0.29-0.569l0.924-7.391C11.599,2,11.519,1.851,11.382,1.781L10.199,1.19
			c0.004-0.029,0.018-0.053,0.018-0.083C10.217,0.496,9.72,0,9.111,0C8.5,0,8.004,0.496,8.004,1.107
			c0,0.612,0.495,1.106,1.106,1.106c0.317,0,0.598-0.137,0.799-0.351l0.914,0.458L9.936,9.439c-0.265,0.11-0.45,0.371-0.45,0.674
			c0,1.804-1.468,3.271-3.271,3.271c-1.803,0-3.271-1.467-3.271-3.271c0-0.303-0.184-0.562-0.446-0.674L1.606,2.32l0.912-0.457
			c0.202,0.213,0.483,0.35,0.802,0.35c0.61,0,1.105-0.494,1.105-1.106C4.426,0.496,3.931,0,3.321,0C2.708,0,2.212,0.496,2.212,1.107
			c0,0.03,0.015,0.055,0.018,0.084l-1.18,0.59c-0.14,0.069-0.219,0.218-0.2,0.372l0.926,7.389c-0.174,0.133-0.295,0.334-0.295,0.571
			c0,2.468,1.906,4.479,4.319,4.692c-0.242,2.25-1.636,3.237-3.002,4.181c-1.289,0.892-2.624,1.814-2.468,3.759
			c0.445,5.606,3.781,6.292,7.197,6.292c0.562,0,1.127-0.02,1.679-0.036c0.541-0.019,1.075-0.036,1.593-0.036
			c4.054,0,6.318-2.806,6.772-8.316C18.651,20.514,19.493,19.6,19.493,18.48z"/>
	</g>
</g>
<g>
</g>
<g>
</g>
<g>
</g>
<g>
</g>
<g>
</g>
<g>
</g>
<g>
</g>
<g>
</g>
<g>
</g>
<g>
</g>
<g>
</g>
<g>
</g>
<g>
</g>
<g>
</g>
<g>
</g>
</svg>
